<svg width="518" height="222" viewBox="0 0 518 222" fill="none" xmlns="http://www.w3.org/2000/svg">
<path d="M33.852 46.9561V45.7428H66.0054V88.2095H63.5787L62.972 62.7295C59.8174 79.8375 49.14 89.7868 34.58 89.7868C14.56 89.7868 4.41548e-05 70.6161 4.41548e-05 44.8935C4.41548e-05 18.5641 14.3174 0.000130473 34.3374 0.000130473C49.6254 0.000130473 59.0894 9.22147 63.7 22.9321L62.4867 23.2961C58.1187 10.9201 49.7467 1.82014 34.3374 1.82014C15.4094 1.82014 3.51871 19.5348 3.51871 44.8935C3.51871 69.6455 15.5307 87.9668 34.58 87.9668C50.232 87.9668 61.2734 76.8041 62.8507 53.7508V46.9561H33.852ZM82.0517 43.4375V86.9961H129.25V88.2095H78.897V1.57747H128.401V2.7908H82.0517V42.2241H122.577V43.4375H82.0517ZM136.369 88.2095V1.57747H139.403L191.091 82.9921V1.57747H192.425V88.2095H190.848L137.825 4.73213V88.2095H136.369ZM209.674 43.4375V86.9961H256.873V88.2095H206.52V1.57747H256.024V2.7908H209.674V42.2241H250.2V43.4375H209.674ZM287.531 88.2095L256.105 1.57747H259.381L289.472 84.5695L319.441 1.57747H321.019L289.593 88.2095H287.531ZM327.152 88.2095V1.57747H330.306V88.2095H327.152ZM347.492 43.4375V86.9961H394.691V88.2095H344.337V1.57747H393.841V2.7908H347.492V42.2241H388.017V43.4375H347.492ZM425.348 88.2095L393.923 1.57747H397.199L427.29 84.5695L457.259 1.57747H458.836L427.411 88.2095H425.348ZM468.124 43.4375V86.9961H515.323V88.2095H464.969V1.57747H514.473V2.7908H468.124V42.2241H508.649V43.4375H468.124ZM174.644 101.791H147.344V144.136H174.766C189.932 144.136 200.003 137.341 200.003 123.267C200.003 109.071 190.054 101.791 174.644 101.791ZM193.572 163.428L195.878 168.16C203.4 183.933 207.404 185.875 210.559 185.875V187.209C206.555 187.209 199.882 184.661 191.388 167.189L189.204 162.579C183.866 151.659 178.406 145.349 167.243 145.349H147.344V187.209H144.19V100.577H174.523C192.48 100.577 203.4 108.828 203.4 123.267C203.4 137.705 192.602 145.349 174.644 145.349H174.28C182.652 147.291 188.598 152.993 193.572 163.428ZM217.495 142.437V185.996H264.693V187.209H214.34V100.577H263.844V101.791H217.495V141.224H258.02V142.437H217.495ZM274.967 142.437V185.996H322.166V187.209H271.812V100.577H321.316V101.791H274.967V141.224H315.492V142.437H274.967ZM350.518 100.577C374.663 100.577 389.587 117.928 389.587 143.893C389.587 169.859 374.663 187.209 350.518 187.209H329.284V100.577H350.518ZM332.439 185.996H350.032C374.299 185.996 386.068 167.917 386.068 143.893C386.068 119.869 374.299 101.791 350.032 101.791H332.439V185.996ZM402.708 142.437V185.996H449.907V187.209H399.554V100.577H449.058V101.791H402.708V141.224H443.234V142.437H402.708ZM478.259 100.577C502.404 100.577 517.328 117.928 517.328 143.893C517.328 169.859 502.404 187.209 478.259 187.209H457.026V100.577H478.259ZM460.18 185.996H477.774C502.04 185.996 513.81 167.917 513.81 143.893C513.81 119.869 502.04 101.791 477.774 101.791H460.18V185.996Z" fill="white"/>
<path d="M177.035 220.876V197.996H178.699V220.876H177.035ZM183.431 220.876V197.996H184.967L198.087 218.028V197.996H199.143V220.876H197.991L184.487 200.236V220.876H183.431ZM210.115 220.876V197.996H223.747V198.732H211.779V208.524H222.339V209.292H211.779V220.108H223.971V220.876H210.115ZM226.535 197.996H228.199V212.78C228.199 216.524 230.183 220.14 234.599 220.14C239.271 220.14 241.351 216.908 241.351 212.78V197.996H242.439V212.94C242.439 217.708 239.847 221.292 234.535 221.292C229.159 221.292 226.535 217.708 226.535 212.94V197.996ZM248.312 198.732V209.292H255.128C258.488 209.292 261.272 207.724 261.272 204.044C261.272 200.332 258.424 198.732 255.032 198.732H248.312ZM248.312 220.876H246.648V197.996H255C258.84 197.996 263 199.564 263 204.044C263 208.044 259.768 209.74 256.184 209.964C260.952 211.948 261.72 220.076 264.76 220.076V220.876C258.84 220.876 259.256 210.028 253.144 210.028H248.312V220.876ZM275.337 221.292C268.681 221.292 265.481 215.436 265.481 209.452C265.481 203.372 268.553 197.58 275.337 197.58C282.089 197.58 285.129 203.436 285.129 209.452C285.129 215.404 281.993 221.292 275.337 221.292ZM267.209 209.452C267.209 214.54 269.321 220.524 275.337 220.524C281.321 220.524 283.433 214.476 283.433 209.452C283.433 204.364 281.385 198.316 275.337 198.316C269.289 198.316 267.209 204.364 267.209 209.452ZM290.282 198.732V209.996H296.554C300.234 209.996 302.474 207.916 302.474 204.364C302.474 200.876 300.202 198.732 296.554 198.732H290.282ZM290.282 220.876H288.618V197.996H296.522C300.714 197.996 304.202 200.012 304.202 204.364C304.202 208.716 300.682 210.764 296.522 210.764H290.282V220.876ZM307.29 220.876V197.996H320.922V198.732H308.954V208.524H319.514V209.292H308.954V220.108H321.146V220.876H307.29ZM330.366 200.14L325.726 212.332H334.974L330.366 200.14ZM322.558 220.876H321.47L330.078 197.996H331.294L339.87 220.876H338.174L335.23 213.164H325.47L322.558 220.876ZM342.296 220.876V197.996H343.832L356.952 218.028V197.996H358.008V220.876H356.856L343.352 200.236V220.876H342.296ZM373.34 220.876L366.78 197.996H368.508L374.3 218.188L379.676 197.996H380.956L386.94 218.188L392.604 197.996H393.724L387.26 220.876H385.98L380.028 200.748L374.62 220.876H373.34ZM396.403 220.876V197.996H398.067V208.524H410.611V197.996H412.275V220.876H410.611V209.292H398.067V220.876H396.403ZM416.888 220.876V197.996H418.552V220.876H416.888ZM427.347 220.876V198.732H420.403V197.996H435.923V198.732H429.011V220.876H427.347ZM437.858 220.876V197.996H451.49V198.732H439.522V208.524H450.082V209.292H439.522V220.108H451.714V220.876H437.858ZM469.282 221.292C462.626 221.292 459.426 215.436 459.426 209.452C459.426 203.372 462.498 197.58 469.282 197.58C476.034 197.58 479.074 203.436 479.074 209.452C479.074 215.404 475.938 221.292 469.282 221.292ZM461.154 209.452C461.154 214.54 463.266 220.524 469.282 220.524C475.266 220.524 477.378 214.476 477.378 209.452C477.378 204.364 475.33 198.316 469.282 198.316C463.234 198.316 461.154 204.364 461.154 209.452ZM488.591 200.14L483.951 212.332H493.199L488.591 200.14ZM480.783 220.876H479.695L488.303 197.996H489.519L498.095 220.876H496.399L493.455 213.164H483.695L480.783 220.876ZM500.329 220.876V197.996H501.993V212.524L514.889 197.996H516.169L508.169 206.988L517.193 220.876H515.177L507.113 208.236L501.993 213.964V220.876H500.329Z" fill="white"/>
</svg>
